<svg xmlns="http://www.w3.org/2000/svg" width="28.429" height="38.547" viewBox="0 0 28.429 38.547"><defs><style>.a{fill:#5382a1;}.b{fill:#bc202d;}</style></defs><path class="a" d="M67.8,267.473s-1.473.857,1.048,1.146a22.057,22.057,0,0,0,7.982-.339,13.891,13.891,0,0,0,2.121,1.036c-7.546,3.234-17.078-.187-11.151-1.843" transform="translate(-58.649 -237.663)"/><path class="a" d="M57.778,229.659s-1.652,1.223.871,1.484a31.138,31.138,0,0,0,10.3-.494,4.572,4.572,0,0,0,1.586.967c-9.124,2.668-19.285.21-12.756-1.957" transform="translate(-49.544 -204.069)"/><path class="b" d="M130.367,81.472c1.859,2.141-.489,4.067-.489,4.067s4.721-2.437,2.553-5.489c-2.025-2.846-3.578-4.26,4.829-9.136,0,0-13.2,3.3-6.893,10.558" transform="translate(-114.36 -63.041)"/><path class="a" d="M26.5,292.847s1.09.9-1.2,1.593c-4.356,1.32-18.128,1.718-21.955.053-1.375-.6,1.2-1.429,2.015-1.6a5.228,5.228,0,0,1,1.33-.149c-1.53-1.078-9.886,2.116-4.245,3.03,15.385,2.5,28.046-1.123,24.055-2.924" transform="translate(-0.517 -259.915)"/><path class="a" d="M35.022,190.43s-7.006,1.664-2.481,2.268a52.613,52.613,0,0,0,9.267-.1c2.9-.245,5.811-.764,5.811-.764a12.3,12.3,0,0,0-1.762.943c-7.114,1.871-20.858,1-16.9-.913a13.256,13.256,0,0,1,6.067-1.434" transform="translate(-25.158 -169.213)"/><path class="a" d="M200.349,194.54c7.232-3.758,3.888-7.369,1.554-6.883a5.406,5.406,0,0,0-.827.222,1.318,1.318,0,0,1,.618-.477c4.617-1.623,8.168,4.788-1.491,7.327a.627.627,0,0,0,.145-.189" transform="translate(-177.918 -166.298)"/><path class="b" d="M91.512.371s4.005,4.007-3.8,10.167c-6.258,4.942-1.427,7.76,0,10.98-3.653-3.3-6.334-6.2-4.535-8.9,2.64-3.964,9.952-5.885,8.336-12.25" transform="translate(-73.44 -0.371)"/><path class="a" d="M51.889,316.557c6.942.444,17.6-.247,17.854-3.531,0,0-.485,1.245-5.737,2.234a57.074,57.074,0,0,1-17.567.27s.887.734,5.45,1.027" transform="translate(-41.314 -278.132)"/></svg>