<svg xmlns="http://www.w3.org/2000/svg" xmlns:xlink="http://www.w3.org/1999/xlink" width="566.251" height="491.164" viewBox="0 0 566.251 491.164"><defs><style>.a{opacity:0.47;}.b,.c,.d{fill:none;stroke:#a2cbdb;stroke-miterlimit:10;}.b{stroke-width:1.8px;stroke-dasharray:2.001 2.001;}.c,.d{stroke-width:1.609px;}.c{stroke-dasharray:1.991 1.991;}.d{stroke-dasharray:2.005 2.005;}.e{fill:#ddf1fb;}.f,.u{fill:#fff;}.g{fill:#fbbd3c;}.h{fill:#f49837;}.i{fill:#ffd038;}.j{fill:#ec6825;}.k{fill:#5482a1;}.l{fill:#e7700a;}.aa,.ab,.ac,.ad,.am,.ax,.ay,.az,.m,.n,.o,.p,.q,.r,.s,.t,.u,.v,.w,.x,.y,.z{fill-rule:evenodd;}.m{fill:url(#aa);}.n{fill:url(#ab);}.o{fill:url(#ac);}.p{fill:url(#ad);}.q{fill:url(#ae);}.r{fill:url(#af);}.s{fill:url(#ag);}.t{fill:url(#ah);}.v{fill:url(#ai);}.w{fill:url(#aj);}.x{fill:url(#ak);}.y{fill:url(#al);}.z{fill:#9f1915;}.aa{fill:url(#am);}.ab{fill:url(#an);}.ac{fill:url(#ao);}.ad{fill:url(#ap);}.ae{fill:#4ab382;}.af{fill:#364a5e;}.ag{fill:#35beed;}.ah{fill:#9b4a94;}.ai{fill:#672575;}.aj{fill:#823185;}.ak{fill:#5a676d;}.al{fill:#bcae7a;}.am{fill:#cc1417;}.an{fill:#f6df1c;}.ao{fill:#020203;}.ap{clip-path:url(#aq);}.aq{fill:#da2028;}.ar{fill:#f4aa40;}.as{fill:#f4a93f;}.at{fill:#e88734;}.au{fill:#f8ca51;}.av{fill:#f9cb52;}.aw{fill:#f5a83f;}.ax{fill:#1973b7;}.ay{fill:#37a8db;}.az{fill:#eae9e8;}.ba{fill:#75cbed;}.bb{filter:url(#y);}.bc{filter:url(#w);}.bd{filter:url(#u);}.be{filter:url(#s);}.bf{filter:url(#q);}.bg{filter:url(#o);}.bh{filter:url(#m);}.bi{filter:url(#k);}.bj{filter:url(#i);}.bk{filter:url(#g);}.bl{filter:url(#e);}.bm{filter:url(#c);}.bn{filter:url(#a);}</style><filter id="a" x="295.384" y="8.196" width="97.023" height="97.023" filterUnits="userSpaceOnUse"><feOffset input="SourceAlpha"/><feGaussianBlur stdDeviation="1.5" result="b"/><feFlood flood-opacity="0.271"/><feComposite operator="in" in2="b"/><feComposite in="SourceGraphic"/></filter><filter id="c" x="443.16" y="270.909" width="123.091" height="123.091" filterUnits="userSpaceOnUse"><feOffset input="SourceAlpha"/><feGaussianBlur stdDeviation="1.5" result="d"/><feFlood flood-opacity="0.271"/><feComposite operator="in" in2="d"/><feComposite in="SourceGraphic"/></filter><filter id="e" x="83.452" y="275.48" width="125.122" height="125.122" filterUnits="userSpaceOnUse"><feOffset input="SourceAlpha"/><feGaussianBlur stdDeviation="1.5" result="f"/><feFlood flood-opacity="0.271"/><feComposite operator="in" in2="f"/><feComposite in="SourceGraphic"/></filter><filter id="g" x="337.364" y="153.094" width="68.923" height="68.923" filterUnits="userSpaceOnUse"><feOffset input="SourceAlpha"/><feGaussianBlur stdDeviation="1.5" result="h"/><feFlood flood-opacity="0.271"/><feComposite operator="in" in2="h"/><feComposite in="SourceGraphic"/></filter><filter id="i" x="449.593" y="102.82" width="79.757" height="79.757" filterUnits="userSpaceOnUse"><feOffset input="SourceAlpha"/><feGaussianBlur stdDeviation="1.5" result="j"/><feFlood flood-opacity="0.271"/><feComposite operator="in" in2="j"/><feComposite in="SourceGraphic"/></filter><filter id="k" x="329.408" y="391.771" width="99.393" height="99.393" filterUnits="userSpaceOnUse"><feOffset input="SourceAlpha"/><feGaussianBlur stdDeviation="1.5" result="l"/><feFlood flood-opacity="0.271"/><feComposite operator="in" in2="l"/><feComposite in="SourceGraphic"/></filter><filter id="m" x="208.715" y="400.743" width="75.694" height="75.694" filterUnits="userSpaceOnUse"><feOffset input="SourceAlpha"/><feGaussianBlur stdDeviation="1.5" result="n"/><feFlood flood-opacity="0.271"/><feComposite operator="in" in2="n"/><feComposite in="SourceGraphic"/></filter><filter id="o" x="98.687" y="53.9" width="126.815" height="126.815" filterUnits="userSpaceOnUse"><feOffset input="SourceAlpha"/><feGaussianBlur stdDeviation="1.5" result="p"/><feFlood flood-opacity="0.271"/><feComposite operator="in" in2="p"/><feComposite in="SourceGraphic"/></filter><filter id="q" x="0" y="231.807" width="84.835" height="84.835" filterUnits="userSpaceOnUse"><feOffset input="SourceAlpha"/><feGaussianBlur stdDeviation="1.5" result="r"/><feFlood flood-opacity="0.271"/><feComposite operator="in" in2="r"/><feComposite in="SourceGraphic"/></filter><filter id="s" x="221.58" y="142.43" width="86.189" height="86.189" filterUnits="userSpaceOnUse"><feOffset input="SourceAlpha"/><feGaussianBlur stdDeviation="1.5" result="t"/><feFlood flood-opacity="0.271"/><feComposite operator="in" in2="t"/><feComposite in="SourceGraphic"/></filter><filter id="u" x="18.282" y="145.816" width="70.277" height="70.277" filterUnits="userSpaceOnUse"><feOffset input="SourceAlpha"/><feGaussianBlur stdDeviation="1.5" result="v"/><feFlood flood-opacity="0.271"/><feComposite operator="in" in2="v"/><feComposite in="SourceGraphic"/></filter><filter id="w" x="243.078" y="245.349" width="66.553" height="66.553" filterUnits="userSpaceOnUse"><feOffset input="SourceAlpha"/><feGaussianBlur stdDeviation="1.5" result="x"/><feFlood flood-opacity="0.271"/><feComposite operator="in" in2="x"/><feComposite in="SourceGraphic"/></filter><filter id="y" x="426.233" y="8.196" width="68.923" height="68.923" filterUnits="userSpaceOnUse"><feOffset input="SourceAlpha"/><feGaussianBlur stdDeviation="1.5" result="z"/><feFlood flood-opacity="0.271"/><feComposite operator="in" in2="z"/><feComposite in="SourceGraphic"/></filter><linearGradient id="aa" x1="-0.257" y1="2.861" x2="-0.445" y2="3.615" gradientUnits="objectBoundingBox"><stop offset="0" stop-color="#ee7558"/><stop offset="0.41" stop-color="#e52d21"/><stop offset="0.99" stop-color="#991915"/><stop offset="1" stop-color="#991915"/></linearGradient><linearGradient id="ab" x1="-2.539" y1="4.501" x2="-3.497" y2="5.02" gradientUnits="objectBoundingBox"><stop offset="0" stop-color="#861811"/><stop offset="0.99" stop-color="#911913"/><stop offset="1" stop-color="#911913"/></linearGradient><linearGradient id="ac" x1="-0.727" y1="2.838" x2="-1.219" y2="3.207" xlink:href="#ab"/><linearGradient id="ad" x1="-2.773" y1="6.678" x2="-2.653" y2="5.841" gradientUnits="objectBoundingBox"><stop offset="0" stop-color="#fff"/><stop offset="0.23" stop-color="#e57353"/><stop offset="0.46" stop-color="#de3c1f"/><stop offset="0.99" stop-color="#a71916"/><stop offset="1" stop-color="#a71916"/></linearGradient><linearGradient id="ae" x1="-2.443" y1="5.975" x2="-2.406" y2="5.255" gradientUnits="objectBoundingBox"><stop offset="0" stop-color="#fff"/><stop offset="0.23" stop-color="#e4724e"/><stop offset="0.56" stop-color="#bf1c18"/><stop offset="0.99" stop-color="#a91916"/><stop offset="1" stop-color="#a91916"/></linearGradient><linearGradient id="af" x1="-4.256" y1="7.137" x2="-4.087" y2="6.6" gradientUnits="objectBoundingBox"><stop offset="0" stop-color="#fff"/><stop offset="0.18" stop-color="#e46242"/><stop offset="0.4" stop-color="#c92718"/><stop offset="0.99" stop-color="#a91916"/><stop offset="1" stop-color="#a91916"/></linearGradient><linearGradient id="ag" x1="-7.854" y1="14.376" x2="-6.824" y2="14.875" gradientUnits="objectBoundingBox"><stop offset="0" stop-color="#fff"/><stop offset="0.54" stop-color="#c92318"/><stop offset="0.99" stop-color="#c01818"/><stop offset="1" stop-color="#c01818"/></linearGradient><linearGradient id="ah" x1="-5.392" y1="12.763" x2="-5.315" y2="11.886" gradientUnits="objectBoundingBox"><stop offset="0" stop-color="#fff"/><stop offset="0.31" stop-color="#df4123"/><stop offset="0.99" stop-color="#c01c18"/><stop offset="1" stop-color="#c01c18"/></linearGradient><linearGradient id="ai" x1="-1.796" y1="6.364" x2="-0.826" y2="8.609" gradientUnits="objectBoundingBox"><stop offset="0" stop-color="#bd1818"/><stop offset="0.07" stop-color="#fff"/><stop offset="0.17" stop-color="#fff"/><stop offset="0.27" stop-color="#c8311d"/><stop offset="0.33" stop-color="#821810"/><stop offset="0.46" stop-color="#a31c16"/><stop offset="0.72" stop-color="#b21917"/><stop offset="0.99" stop-color="#e52d15"/><stop offset="1" stop-color="#e52d15"/></linearGradient><linearGradient id="aj" x1="-1.257" y1="5.047" x2="-1.694" y2="5.207" gradientUnits="objectBoundingBox"><stop offset="0" stop-color="#8c1812"/><stop offset="0.54" stop-color="#991915"/><stop offset="0.99" stop-color="#a91917"/><stop offset="1" stop-color="#a91917"/></linearGradient><linearGradient id="ak" x1="-1.659" y1="6.084" x2="-2.087" y2="6.627" gradientUnits="objectBoundingBox"><stop offset="0" stop-color="#7e1710"/><stop offset="0.99" stop-color="#9e1915"/><stop offset="1" stop-color="#9e1915"/></linearGradient><linearGradient id="al" x1="-5.685" y1="6.834" x2="-6.183" y2="7.13" gradientUnits="objectBoundingBox"><stop offset="0" stop-color="#791711"/><stop offset="0.99" stop-color="#9e1a16"/><stop offset="1" stop-color="#9e1a16"/></linearGradient><radialGradient id="am" cx="58.793" cy="-50.221" r="0.814" gradientTransform="matrix(0.805, 0.715, 0.822, -0.699, 48.374, -116.751)" gradientUnits="objectBoundingBox"><stop offset="0" stop-color="#a91916"/><stop offset="0.99" stop-color="#7e1710"/><stop offset="1" stop-color="#7e1710"/></radialGradient><radialGradient id="an" cx="81.77" cy="-51.891" r="0.936" gradientTransform="matrix(0.889, 0.715, 0.909, -0.699, 51.535, -134.472)" gradientUnits="objectBoundingBox"><stop offset="0" stop-color="#a41916"/><stop offset="0.99" stop-color="#801810"/><stop offset="1" stop-color="#801810"/></radialGradient><linearGradient id="ao" x1="-4.744" y1="5.762" x2="-5.158" y2="6.661" gradientUnits="objectBoundingBox"><stop offset="0" stop-color="#8c2215"/><stop offset="0.43" stop-color="#9f1915"/><stop offset="0.99" stop-color="#b31918"/><stop offset="1" stop-color="#b31918"/></linearGradient><linearGradient id="ap" x1="-6.622" y1="10.966" x2="-5.711" y2="10.633" gradientUnits="objectBoundingBox"><stop offset="0" stop-color="#b21917"/><stop offset="0.44" stop-color="#921913"/><stop offset="0.99" stop-color="#7a1c14"/><stop offset="1" stop-color="#7a1c14"/></linearGradient><clipPath id="aq"><rect width="52.475" height="38.764"/></clipPath></defs><g transform="translate(-50.842 -39.093)"><g transform="translate(83.272 61.607)"><g class="a" transform="translate(83.96 22.852)"><circle class="b" cx="201.606" cy="201.606" r="201.606"/></g><g class="a" transform="translate(290.475)"><circle class="c" cx="87.007" cy="87.007" r="87.007" transform="translate(0)"/></g><g class="a" transform="translate(0 90.9)"><circle class="d" cx="125.263" cy="125.263" r="125.263"/></g></g><g transform="translate(93.259 39.093)"><path class="e" d="M422.043,39.093l-56.368,99.533H475.7Z" transform="translate(-77.061 -39.093)"/><path class="e" d="M306.368,69.016,282.5,111.335h46.72Z" transform="translate(-81.403 -37.531)"/><path class="e" d="M424.262,366,410.72,390.033H437.3Z" transform="translate(-74.71 -22.03)"/><path class="e" d="M110.168,414.9,91.378,447.911h36.563Z" transform="translate(-91.378 -19.478)"/><path class="e" d="M283,397.353l31.146-54.845h-60.77Z" transform="translate(-82.922 -23.256)"/><path class="e" d="M471.515,301.469l19.974-35.378h-39.1Z" transform="translate(-72.535 -27.245)"/><path class="e" d="M133.183,97.488l16.589-29.115H117.44Z" transform="translate(-90.018 -37.565)"/></g><g transform="translate(55.342 51.789)"><g class="bn" transform="matrix(1, 0, 0, 1, -4.5, -12.7)"><circle class="f" cx="44.011" cy="44.011" r="44.011" transform="translate(299.88 12.7)"/></g><g class="bm" transform="matrix(1, 0, 0, 1, -4.5, -12.7)"><circle class="f" cx="57.045" cy="57.045" r="57.045" transform="translate(447.66 275.41)"/></g><g class="bl" transform="matrix(1, 0, 0, 1, -4.5, -12.7)"><circle class="f" cx="58.061" cy="58.061" r="58.061" transform="translate(87.95 279.98)"/></g><g class="bk" transform="matrix(1, 0, 0, 1, -4.5, -12.7)"><circle class="f" cx="29.962" cy="29.962" r="29.962" transform="translate(341.86 157.59)"/></g><g class="bj" transform="matrix(1, 0, 0, 1, -4.5, -12.7)"><circle class="f" cx="35.378" cy="35.378" r="35.378" transform="translate(454.09 107.32)"/></g><g class="bi" transform="matrix(1, 0, 0, 1, -4.5, -12.7)"><circle class="f" cx="45.196" cy="45.196" r="45.196" transform="translate(333.91 396.27)"/></g><g class="bh" transform="matrix(1, 0, 0, 1, -4.5, -12.7)"><circle class="f" cx="33.347" cy="33.347" r="33.347" transform="translate(213.22 405.24)"/></g><g class="bg" transform="matrix(1, 0, 0, 1, -4.5, -12.7)"><circle class="f" cx="58.907" cy="58.907" r="58.907" transform="translate(103.19 58.4)"/></g><g class="bf" transform="matrix(1, 0, 0, 1, -4.5, -12.7)"><circle class="f" cx="37.917" cy="37.917" r="37.917" transform="translate(4.5 236.31)"/></g><g class="be" transform="matrix(1, 0, 0, 1, -4.5, -12.7)"><circle class="f" cx="38.595" cy="38.595" r="38.595" transform="translate(226.08 146.93)"/></g><g class="bd" transform="matrix(1, 0, 0, 1, -4.5, -12.7)"><circle class="f" cx="30.639" cy="30.639" r="30.639" transform="translate(22.78 150.32)"/></g><g class="bc" transform="matrix(1, 0, 0, 1, -4.5, -12.7)"><circle class="f" cx="28.777" cy="28.777" r="28.777" transform="translate(247.58 249.85)"/></g><g class="bb" transform="matrix(1, 0, 0, 1, -4.5, -12.7)"><circle class="f" cx="29.962" cy="29.962" r="29.962" transform="translate(430.73 12.7)"/></g></g><g transform="translate(74.47 66.346)"><g transform="translate(446.715 277.61)"><path class="g" d="M508.4,364.87l-3.555,1.354-.169,10.664,12.526-4.57c-4.4-1.354-7.617-3.893-8.8-7.448" transform="translate(-497.732 -326.952)"/><path class="h" d="M510.6,354.091l-12.526,4.57,6.94,8.125,3.555-1.354c-1.185-3.385-.339-7.448,2.031-11.341" transform="translate(-498.076 -327.515)"/><path class="i" d="M531.1,339.6c-15.912,5.755-26.238,17.774-22.852,26.745l57.553-20.99c-3.216-8.972-18.789-11.511-34.7-5.755" transform="translate(-497.579 -328.432)"/><path class="j" d="M542.913,371.666c15.912-5.755,26.237-17.774,22.852-26.745l-57.553,20.99c3.216,9.141,18.789,11.511,34.7,5.755" transform="translate(-497.547 -327.994)"/><path class="h" d="M565.765,344.921l-57.553,20.99c1.185,3.047,5.417,4.57,11.511,4.57,5.925,0,13.373-1.523,21.329-4.4,15.743-5.586,26.915-15.065,24.714-21.159" transform="translate(-497.547 -327.994)"/><path class="g" d="M554.276,340.577c-5.925,0-13.373,1.523-21.329,4.4-15.912,5.755-27.084,15.235-24.883,21.329l57.553-20.99c-1.016-3.216-5.247-4.74-11.341-4.74" transform="translate(-497.569 -328.22)"/><g transform="translate(22.086)"><path class="j" d="M550.471,379.22c-1.693,0-4.232-1.523-7.448-4.57a88.164,88.164,0,0,1-12.357-14.727,112.264,112.264,0,0,1-9.649-16.758q-3.3-7.871-1.016-9.649a3.138,3.138,0,0,1,1.185-.339c1.354,0,3.893,1.016,8.464,5.586l.169.169v.169a2.147,2.147,0,0,1-.169,1.016v.677l-.508-.508c-5.078-5.078-7.279-5.586-7.956-5.586a.622.622,0,0,0-.508.169c-.677.508-.677,2.878,1.354,7.956A109.529,109.529,0,0,0,543.7,373.8c4.063,3.724,5.925,4.232,6.432,4.232a.622.622,0,0,0,.508-.169c.677-.508.677-3.047-1.693-8.633l-.169-.169.169-.169a1.283,1.283,0,0,1,.677-.339l.339-.169.169.339c1.693,3.893,3.216,8.8,1.185,10.326.169,0-.339.169-.846.169Zm0-.677v0Z" transform="translate(-519.067 -328.607)"/><path class="j" d="M542.185,372.337v.339c-.339,4.909-1.523,11-4.232,11.172h-.169c-1.862,0-3.724-2.708-5.247-7.956a100.946,100.946,0,0,1-3.385-18.959,91.352,91.352,0,0,1,0-19.3c.677-5.755,2.031-8.633,4.063-8.8h.169c1.354,0,3.385,1.523,5.586,8.633l-1.354.339a34.493,34.493,0,0,0-2.2-5.755c-.677-1.185-1.354-1.862-1.862-1.862h0c-.846,0-2.031,2.031-2.708,7.617a88.164,88.164,0,0,0,0,18.959,96.961,96.961,0,0,0,3.385,18.62,19.509,19.509,0,0,0,2.2,5.247c.677,1.185,1.354,1.693,1.862,1.693h0c.846,0,2.37-2.2,2.878-9.649Z" transform="translate(-518.567 -328.833)"/></g></g><g transform="translate(93.574 273.209)"><path class="k" d="M178.748,377.418s-2.708,1.523,2.031,2.2c5.755.677,8.633.508,14.9-.677a27.873,27.873,0,0,0,3.893,1.862c-14.219,6.094-31.993-.339-20.821-3.385" transform="translate(-161.786 -321.896)"/><path class="k" d="M176.993,370.018s-3.047,2.2,1.693,2.708a58.089,58.089,0,0,0,19.128-.846,9.534,9.534,0,0,0,2.878,1.862c-16.927,4.909-35.717.339-23.7-3.724" transform="translate(-161.893 -322.282)"/><path class="l" d="M190.8,358.274c3.385,4.063-.846,7.617-.846,7.617s8.8-4.57,4.74-10.156c-3.724-5.248-6.6-7.956,8.972-16.927,0-.169-24.545,5.925-12.865,19.467" transform="translate(-161.138 -323.912)"/><path class="k" d="M210.731,383.078s2.031,1.693-2.2,3.047c-8.125,2.539-33.686,3.216-40.8.169-2.539-1.185,2.2-2.708,3.724-3.047a12.957,12.957,0,0,1,2.539-.339c-2.878-2.031-18.451,3.893-7.956,5.586,28.438,4.57,52.137-2.2,44.688-5.417" transform="translate(-162.453 -321.631)"/><path class="k" d="M180.318,362.3s-13.034,3.047-4.57,4.232c3.555.508,10.664.339,17.266-.169,5.417-.508,10.834-1.354,10.834-1.354a33.238,33.238,0,0,0-3.216,1.693c-13.2,3.555-38.764,1.862-31.485-1.693a24.222,24.222,0,0,1,11.172-2.708" transform="translate(-162.17 -322.686)"/><path class="k" d="M202.074,375.371c13.542-6.94,7.279-13.711,2.878-12.865a11.161,11.161,0,0,0-1.523.339,1.759,1.759,0,0,1,1.185-.846c8.633-3.047,15.235,8.972-2.708,13.711-.169,0,0-.169.169-.339" transform="translate(-160.397 -322.727)"/><path class="l" d="M195.166,324.65s7.448,7.448-7.11,18.959c-11.68,9.141-2.708,14.388,0,20.482-6.771-6.094-11.849-11.511-8.464-16.589,4.909-7.279,18.451-11,15.573-22.852" transform="translate(-161.614 -324.65)"/><path class="k" d="M181.491,393.029c12.865.846,32.839-.508,33.178-6.6,0,0-.846,2.37-10.664,4.232-11,2.031-24.714,1.862-32.67.508,0,0,1.693,1.354,10.156,1.862" transform="translate(-161.989 -321.426)"/></g><g transform="translate(103.803 61.439)"><path class="m" d="M211.048,161.5l-35.209-9.31,30.3,27.084,31.316-26.407Z" transform="translate(-171.983 -121.882)"/><path class="n" d="M204.678,178.888l14.727-19.3-15.573,1.862Z" transform="translate(-170.522 -121.496)"/><path class="o" d="M206.139,179.274l-16.42-19.636-13.88-7.448Z" transform="translate(-171.983 -121.882)"/><path class="p" d="M176,153.08l19.3-9.987-11.849-7.956Z" transform="translate(-171.975 -122.772)"/><path class="q" d="M204.361,162.579l12.357-20.313L193.7,141.25Z" transform="translate(-171.051 -122.453)"/><path class="r" d="M229.676,157.389l-1.693-20.482-13.373,6.94Z" transform="translate(-169.96 -122.68)"/><path class="s" d="M236.536,140.187,226.38,137.14l-.508-7.956Z" transform="translate(-169.372 -123.083)"/><path class="t" d="M175.839,137.741l7.787-2.2,3.893-8.125Z" transform="translate(-171.983 -123.175)"/><path class="u" d="M187.149,127.287l-4.232,8.633,11.849,7.787,21.5,1.016,13.2-6.771-1.354-8.464L216.6,124.07c-5.078-.169-15.235-.677-15.4-.677C201.03,123.224,191.551,125.932,187.149,127.287Z" transform="translate(-171.614 -123.386)"/><path class="v" d="M206.515,123.876c11.511.169,22.175,4.4,22.175,9.987-.169,5.755-10.156,9.649-21.667,9.479s-22.344-4.063-22.175-9.818C184.848,127.769,195,123.707,206.515,123.876Z" transform="translate(-171.513 -123.36)"/><path class="w" d="M176,152.694l19.467-10.156,9.818,19.805C194.789,161.835,184.633,160.142,176,152.694Z" transform="translate(-171.975 -122.386)"/><path class="x" d="M215.342,143.5l-11.511,18.789c9.141-.169,18.282-1.016,26.576-5.247Z" transform="translate(-170.522 -122.336)"/><path class="y" d="M229.182,157.389c6.094-3.047,13.2-9.141,7.279-17.774l-9.141-2.708Z" transform="translate(-169.296 -122.68)"/><path class="z" d="M176.03,137.338c-7.448,7.787-2.2,13.373,0,15.743l7.448-17.943Z" transform="translate(-172.175 -122.772)"/><path class="aa" d="M214.771,143.663c1.185,5.586,3.893,16.758,3.893,17.1.169.339,7.617-1.523,11-3.724Z" transform="translate(-169.951 -122.327)"/><path class="ab" d="M194.625,142.537l-5.755,17.6a50.9,50.9,0,0,0,15.573,2.2Z" transform="translate(-171.303 -122.386)"/><path class="ac" d="M183.47,135.137l-11,9.141c-.677,3.724,1.354,6.263,3.893,8.294C178.73,146.986,183.978,135.306,183.47,135.137Z" transform="translate(-172.166 -122.772)"/><path class="ad" d="M227.159,137.067l9.987,13.711c2.031-3.216,1.862-6.94-.846-10.834Z" transform="translate(-169.305 -122.672)"/></g><g transform="translate(330.978 147.83)"><g transform="translate(0 0)"><path class="ae" d="M150.805,205.489l-4.063,7.222-4.062-7.222H128.913l17.83,30.92,17.83-30.92Z" transform="translate(-128.913 -205.489)"/></g><g transform="translate(7.222 0)"><path class="af" d="M150.447,205.489l-4.063,7.222-4.062-7.222h-6.545L146.385,224l10.608-18.507Z" transform="translate(-135.777 -205.489)"/></g></g><g transform="translate(0 228.892)"><path class="ag" d="M73.521,283.684a2.094,2.094,0,0,1,2.539-1.016c.677.339,1.016.846,1.016,2.2.169,2.37.339,2.539,6.263,2.539a41.846,41.846,0,0,1,5.586.169c1.693.339,2.539,1.016,3.216,3.047.169.339.169.339.339-.169a3.759,3.759,0,0,1,3.216-2.878,41.846,41.846,0,0,1,5.586-.169c5.925,0,6.094,0,6.263-2.539.169-1.354.339-2.031,1.016-2.2a2.132,2.132,0,0,1,2.2.508c.508.508.508.508.508,3.216,0,2.2,0,2.878-.339,3.724a4.615,4.615,0,0,1-2.2,2.539c-.677.339-1.185.339-6.771.508-7.279.169-7.279.169-7.617,2.2q-.254,2.031-2.031,2.031a2,2,0,0,1-1.862-1.862c-.169-1.185-.339-1.693-1.016-1.862-.508-.339-1.354-.339-6.6-.339-5.586,0-5.925-.169-6.771-.508a7.065,7.065,0,0,1-1.354-1.016c-1.016-1.016-1.185-1.862-1.185-4.909,0-1.693,0-3.047,0-3.216Z" transform="translate(-73.521 -282.532)"/><path class="ag" d="M82.865,299.765c.339-.846,1.016-1.016,2.708-1.016s2.37.339,2.708,1.185c.169.339.846,2.878,1.693,5.586,1.862,6.263,1.693,5.755,1.862,5.417a52.177,52.177,0,0,0,1.693-5.586,43.806,43.806,0,0,1,1.862-5.755c.508-.677,1.016-.846,2.708-.846,2.031,0,2.539.339,2.878,1.693a2.111,2.111,0,0,1-1.693,2.539c-.339,0-.677.169-.677.339s-1.016,3.047-2.2,6.432-2.2,6.432-2.37,6.6a1.793,1.793,0,0,1-1.862,1.016,2.913,2.913,0,0,1-2.539-.846c-.169-.169-1.185-3.385-2.539-6.94l-2.2-6.6-.846-.339a1.886,1.886,0,0,1-1.185-2.878Z" transform="translate(-73.047 -281.685)"/></g><g transform="translate(13.881 135.081)"><path class="ah" d="M118.2,203.87a3.38,3.38,0,0,0-.339-1.523,2.667,2.667,0,0,0-1.185-1.185c-4.232-2.37-8.294-4.74-12.526-7.279a3.075,3.075,0,0,0-3.385,0c-1.693,1.016-9.987,5.755-12.526,7.279a2.872,2.872,0,0,0-1.523,2.708v14.558a4.943,4.943,0,0,0,.339,1.523,2.667,2.667,0,0,0,1.185,1.185c2.539,1.354,10.834,6.263,12.526,7.279a3.075,3.075,0,0,0,3.385,0c4.232-2.37,8.294-4.74,12.526-7.279a3.955,3.955,0,0,0,1.185-1.185,4.943,4.943,0,0,0,.339-1.523V203.87" transform="translate(-86.713 -193.375)"/><path class="ai" d="M102.6,210.267l-15.4,8.8a2.667,2.667,0,0,0,1.185,1.185c2.539,1.354,10.834,6.263,12.526,7.279a3.075,3.075,0,0,0,3.385,0c4.232-2.37,8.294-4.74,12.526-7.279A3.954,3.954,0,0,0,118,219.069l-15.4-8.8" transform="translate(-86.688 -192.493)"/><path class="ai" d="M97.492,212.814a5.128,5.128,0,0,0,4.57,2.539,5.336,5.336,0,0,0,4.57-2.708l-4.4-2.539-4.74,2.708" transform="translate(-86.15 -192.501)"/><path class="aj" d="M117.409,203.424a3.38,3.38,0,0,0-.339-1.523l-15.235,8.8,15.235,8.8a4.943,4.943,0,0,0,.339-1.523V203.424" transform="translate(-85.924 -192.929)"/><path class="f" d="M106.757,213.318a5.268,5.268,0,0,1-4.57,2.708,5.555,5.555,0,0,1-4.57-2.539,4.408,4.408,0,0,1-.677-2.539,5.274,5.274,0,0,1,5.247-5.247,5.555,5.555,0,0,1,4.57,2.539l4.57-2.539a10.755,10.755,0,0,0-8.972-5.247,10.548,10.548,0,0,0-10.5,10.5,11,11,0,0,0,1.354,5.248,10.386,10.386,0,0,0,8.972,5.248,10.817,10.817,0,0,0,9.141-5.248l-4.57-2.878" transform="translate(-86.444 -193.005)"/><g transform="translate(24.101 15.235)"><rect class="f" width="1.016" height="5.078" transform="translate(0.952)"/><rect class="f" width="1.016" height="5.078" transform="translate(3.322)"/><rect class="f" width="1.016" height="5.078" transform="translate(5.078 0.926) rotate(90)"/><rect class="f" width="1.016" height="5.078" transform="translate(5.168 3.216) rotate(90)"/></g></g><g transform="translate(240.031 235.461)"><path class="ak" d="M319.25,309.257l-.169.339,5.586,9.649.339.169,5.925-10.156L325,298.931l-5.755,10.326ZM307.4,288.775l-5.755,10.156,5.925,10.326,5.755-10.326v-.339l-5.586-9.649Z" transform="translate(-301.645 -288.775)"/><path class="al" d="M307.115,288.775l5.925,10.156h11.849l-5.925-10.156Zm.169,20.482,5.755,10.156h11.68l-5.925-10.156Z" transform="translate(-301.359 -288.775)"/></g><path class="am" d="M318.514,200.655a14.657,14.657,0,0,0-12.188-.677,17.41,17.41,0,0,0-9.141,7.11,55.184,55.184,0,0,0-8.294,18.451,34.08,34.08,0,0,0-1.185,10.156v.677h19.805l-.169-.169a44.741,44.741,0,0,1-2.37-8.125,28.8,28.8,0,0,1-.339-12.018,15.582,15.582,0,0,1,9.818-11.849,8.128,8.128,0,0,1,8.633,1.354h.169l.846-1.185A18.95,18.95,0,0,0,318.514,200.655Zm-30.808,26.238-3.893-.339-.508,3.724,3.555.508Zm3.216-11.511c-1.185-.508-2.2-.846-3.385-1.354-.339,1.016-.677,2.031-1.185,3.216a29.171,29.171,0,0,1,3.555,1.185Zm16.25,17.6a25,25,0,0,0,3.555.169c-.508-1.016-.846-1.862-1.354-2.708,0-.169-.169-.169-.339-.169h-3.047c.169.846.508,1.693.677,2.37C306.834,232.817,307,232.986,307.173,232.986ZM296.847,205.9l-2.539-1.693c-.677.846-1.354,1.523-2.031,2.37l2.708,1.862C294.816,208.272,296.847,205.9,296.847,205.9Zm8.125,17.435a.591.591,0,0,0,.169.339c1.016.339,1.862.846,2.878,1.185a8.942,8.942,0,0,0-.169-2.2c0-.169,0-.339-.169-.339-.846-.508-1.693-.846-2.708-1.354A5.578,5.578,0,0,1,304.972,223.337Zm-.677-23.529-1.862-2.031-2.37,1.354,1.862,2.2Zm1.185,16.081a.622.622,0,0,0,.169.508,24.04,24.04,0,0,1,2.2,2.031c.169-.846.339-1.523.508-2.2,0-.169,0-.339-.169-.339l-2.031-1.523A13.417,13.417,0,0,0,305.48,215.889Zm4.063-17.1h2.708c-.169-.677-.169-1.185-.339-1.693,0-.169-.339-.339-.339-.339-.846,0-1.862-.169-2.878-.169.169.677.169,1.185.339,1.862C309.2,198.623,309.373,198.793,309.542,198.793Zm1.016,11.68v-.339c-.508-.677-.846-1.354-1.354-2.031l-1.523,1.354,2.2,2.37A10.052,10.052,0,0,1,310.558,210.473Zm1.693-4.909a15.667,15.667,0,0,1,.846,1.693c1.523-.846,1.523-1.016,1.016-2.2Zm6.94-5.248c.677.339,1.185.677,1.862,1.016l.508-.677-2.37-1.693v.846C319.022,199.978,319.022,200.316,319.191,200.316Zm1.693,4.74c-1.185-.169-1.693-.339-2.539-.508v1.185c.846,0,1.185.169,2.539.169Z" transform="translate(-62.571 -58.126)"/><g transform="translate(299.446 8.633)"><rect class="an" width="41.642" height="41.642" transform="translate(0)"/><path class="ao" d="M368.57,107.121l3.216-1.862c.677,1.016,1.185,2.031,2.539,2.031s2.031-.508,2.031-2.539V91.378h3.893v13.373c0,4.063-2.37,5.925-5.755,5.925a6.115,6.115,0,0,1-5.925-3.555" transform="translate(-357.567 -72.25)"/><path class="ao" d="M381.6,106.621l3.216-1.862a4.23,4.23,0,0,0,3.893,2.37c1.693,0,2.708-.846,2.708-1.862,0-1.354-1.016-1.862-2.878-2.539l-1.016-.339c-2.878-1.185-4.74-2.708-4.74-5.925,0-2.878,2.2-5.248,5.755-5.248a5.869,5.869,0,0,1,5.586,3.047L391.08,96.3a2.68,2.68,0,0,0-2.539-1.693,1.651,1.651,0,0,0-1.862,1.693c0,1.185.677,1.693,2.37,2.37l1.016.339c3.385,1.354,5.247,2.878,5.247,6.094,0,3.555-2.708,5.417-6.432,5.417a7.466,7.466,0,0,1-7.279-3.893" transform="translate(-356.887 -72.259)"/></g><g transform="translate(329.239 394.748)"><g class="ap"><path class="aq" d="M438.9,458.789v2.031c-.169.677-.169,1.523-.339,2.2a19.322,19.322,0,0,1-10.5,14.05,19.549,19.549,0,0,1-6.094,1.862c-.508,0-1.016.169-1.354.169H401.831a15.02,15.02,0,0,1-5.417-1.354,16.5,16.5,0,0,1-8.294-7.956,13.57,13.57,0,0,1-1.523-5.078c0-.508-.169-.846-.169-1.354v-2.031a21.434,21.434,0,0,1,1.016-4.74,15.708,15.708,0,0,1,8.125-8.971A17.277,17.277,0,0,1,402,445.924a20.484,20.484,0,0,1,3.216.169c.169,0,.169,0,.339-.169a20.054,20.054,0,0,1,11.511-5.755c.508,0,1.016-.169,1.523-.169h1.862c.846.169,1.523.169,2.37.339a17.434,17.434,0,0,1,6.771,2.539,19.493,19.493,0,0,1,9.141,14.05,5.789,5.789,0,0,0,.169,1.862m-29.454-11.172h0c1.185.677,2.2,1.185,3.216,1.862H413a12.013,12.013,0,0,1,8.633-1.693,11.267,11.267,0,0,1,7.448,4.57,10.963,10.963,0,0,1,2.37,9.31,11.38,11.38,0,0,1-2.878,6.094,11.2,11.2,0,0,1-10.664,3.893,11.782,11.782,0,0,1-6.771-3.385c-2.37-2.37-4.74-4.909-7.279-7.279a2.728,2.728,0,0,0-1.185-.677,1.705,1.705,0,0,0-1.862,1.016,1.6,1.6,0,0,0,.339,2.031c2.708,2.708,5.417,5.247,7.956,7.956a9.307,9.307,0,0,0,1.523,1.185,15.794,15.794,0,0,0,6.6,2.539,20.6,20.6,0,0,0,5.586-.169,15.586,15.586,0,0,0,8.8-5.417,15.261,15.261,0,0,0,3.385-7.956,17.048,17.048,0,0,0-.169-5.078,14.73,14.73,0,0,0-3.555-7.279,15.751,15.751,0,0,0-13.2-5.417,14.113,14.113,0,0,0-5.755,1.693c-1.016.846-2.031,1.354-2.878,2.2m-1.185,27.592-.169-.169c-1.016-1.016-2.2-2.031-3.216-3.047a.88.88,0,0,0-.677-.339,20.484,20.484,0,0,1-3.216-.169,9.306,9.306,0,0,1-6.6-12.188,9.2,9.2,0,0,1,15.065-3.216l5.078,5.078a1.922,1.922,0,0,0,1.354.508,2.153,2.153,0,0,0,1.523-1.185,1.844,1.844,0,0,0-.339-1.862c-1.862-1.862-3.555-3.724-5.417-5.417a11.851,11.851,0,0,0-12.526-2.878,12.789,12.789,0,0,0-8.633,14.9,12.651,12.651,0,0,0,12.357,9.987h5.417" transform="translate(-386.427 -440.169)"/></g></g><g transform="translate(200.759 391.549)"><path class="ar" d="M283.2,450.617l4.74,8.294-5.925-.169Z" transform="translate(-263.398 -436.416)"/><path class="as" d="M285.412,452.065l3.555,6.6-7.11-.169Z" transform="translate(-263.406 -436.34)"/><path class="at" d="M284.735,453.191l3.047,5.586h-5.925Z" transform="translate(-263.406 -436.281)"/><path class="au" d="M287.959,452.709l1.016,6.094H281.7Z" transform="translate(-263.415 -436.307)"/><path class="au" d="M285.42,460.362l3.555-1.862H281.7Z" transform="translate(-263.415 -436.004)"/><path class="at" d="M264.321,455.765c.169,5.078,9.987,9.141,22.175,9.141v-2.031c-9.818,0-19.974-3.047-20.144-7.11Z" transform="translate(-264.321 -436.147)"/><path class="av" d="M296.794,437.932c-4.57-2.37-12.865,4.063-18.959,14.727l1.693,1.016c4.909-8.464,12.7-15.912,16.25-13.881l1.016-1.862Z" transform="translate(-263.616 -437.104)"/><path class="at" d="M264.321,456.219c.169-5.078,9.987-9.141,22.175-9.141v2.031c-9.818,0-19.974,3.047-20.144,7.11Z" transform="translate(-264.321 -436.601)"/><path class="aw" d="M275.065,437.425c-4.4,2.708-2.878,13.2,3.216,23.7l1.693-1.016c-4.909-8.464-7.448-18.959-3.893-21.159Z" transform="translate(-263.893 -437.104)"/><path class="av" d="M275.065,475.281c-4.4-2.708-2.878-13.2,3.216-23.7l1.693,1.016c-4.909,8.464-7.448,18.959-3.893,21.159l-1.016,1.523Z" transform="translate(-263.893 -436.365)"/><path class="aw" d="M274.618,437.611c4.57-2.37,12.865,4.063,18.959,14.727l-1.693,1.016c-4.909-8.464-12.7-15.912-16.25-13.881Z" transform="translate(-263.784 -437.12)"/><path class="at" d="M307.571,456.219c-.169-5.078-9.987-9.141-22.175-9.141v2.031c9.818,0,19.974,3.047,20.144,7.11h2.031Z" transform="translate(-263.221 -436.601)"/><path class="av" d="M274.778,474.878h0c4.57,2.708,13.034-3.893,19.128-14.558l-1.693-1.016c-4.909,8.464-12.865,15.912-16.42,13.88h-.169l-.846,1.693Z" transform="translate(-263.776 -435.962)"/><path class="aw" d="M296.955,474.734c-4.57,2.37-12.865-4.063-18.959-14.727v-.169l1.693-1.016c4.909,8.464,12.7,15.912,16.42,14.05l.846,1.862Z" transform="translate(-263.608 -435.988)"/><path class="at" d="M307.571,455.452h0c0,5.248-9.987,9.31-22.175,9.31v-2.031c9.818,0,20.144-3.047,20.144-7.279v-.169h2.031Z" transform="translate(-263.221 -436.172)"/><path class="aw" d="M295.944,475.289c4.4-2.708,2.878-13.2-3.216-23.7l-.169-.169-1.693,1.016h0c4.909,8.464,7.448,18.959,4.063,21.329l1.016,1.523Z" transform="translate(-262.936 -436.374)"/><path class="av" d="M296.1,437.747c4.4,2.708,2.878,13.2-3.216,23.7l-1.693-1.016c4.909-8.464,7.448-18.959,3.893-21.159l1.016-1.523Z" transform="translate(-262.919 -437.088)"/></g><g transform="translate(450.439 98.179)"><path class="ax" d="M529.546,189.111l2.708-30.469V158.3H501.615v.339l2.708,30.469v.339h.339l12.188,3.385h.169l12.188-3.385h.339Z" transform="translate(-501.615 -158.303)"/><path class="ay" d="M529.12,160.395H516.255v30.131l10.495-2.878Z" transform="translate(-500.851 -158.194)"/><g transform="translate(5.417 6.094)"><path class="az" d="M516.717,168.327l-9.31,3.724.339,3.724,8.972-3.724,9.31-4.063.339-3.893Z" transform="translate(-506.73 -164.095)"/><path class="az" d="M516.751,164.095H526.4v1.523l-.169.846v.677l-.169.846H507.1v-.677l-.169-.677v-.677l-.169-.508v-1.354h9.987Z" transform="translate(-506.764 -164.095)"/><path class="az" d="M507.407,171.656h18.282l-.339,3.893-17.6-.169Z" transform="translate(-506.73 -163.7)"/><path class="az" d="M508.051,177.4h3.893l.339,3.047,4.4,1.185,4.4-1.354.339-5.078h3.893l-.677,8.294-7.956,2.37-8.125-2.37Z" transform="translate(-506.696 -163.515)"/></g><g transform="translate(15.404 6.094)"><path class="u" d="M516.255,172.051l9.31-4.063.339-3.893-9.649,4.063Z" transform="translate(-516.255 -164.095)"/><path class="u" d="M516.255,164.095H525.9v1.523l-.169.846v.677l-.169.846h-9.31Z" transform="translate(-516.255 -164.095)"/><path class="u" d="M516.255,171.656h8.972l-.339,3.893-8.633-.169Z" transform="translate(-516.255 -163.7)"/><path class="u" d="M516.255,181.628l4.4-1.354.339-5.078h3.893l-.677,8.294-7.956,2.37h0Z" transform="translate(-516.255 -163.515)"/></g></g><g transform="translate(421.155)"><path class="ba" d="M507.469,80.4c0-2.2-2.878-4.4-7.279-5.755,1.016-4.4.508-7.956-1.354-9.141a2.516,2.516,0,0,0-1.523-.339v1.523a1.526,1.526,0,0,1,.846.169c1.016.508,1.354,2.539,1.016,5.248a8.5,8.5,0,0,1-.339,2.031,33.8,33.8,0,0,0-4.4-.846,32.712,32.712,0,0,0-2.878-3.555c2.2-2.2,4.4-3.216,5.925-3.216V64.994h0c-1.862,0-4.4,1.354-6.94,3.724-2.539-2.37-5.078-3.724-6.94-3.724v1.523c1.523,0,3.555,1.185,5.925,3.216a20.286,20.286,0,0,0-2.878,3.555,33.806,33.806,0,0,0-4.4.846,8.5,8.5,0,0,1-.339-2.031c-.339-2.708,0-4.74,1.016-5.248a1.268,1.268,0,0,1,.846-.169V65.164h0a4.043,4.043,0,0,0-1.523.339c-2.031,1.185-2.37,4.74-1.354,9.141-4.4,1.354-7.11,3.555-7.11,5.755s2.878,4.4,7.279,5.755c-1.016,4.4-.508,7.956,1.354,9.141a2.515,2.515,0,0,0,1.523.339c1.862,0,4.4-1.354,6.94-3.724,2.539,2.37,5.078,3.724,6.94,3.724a4.043,4.043,0,0,0,1.523-.339c2.031-1.185,2.37-4.74,1.354-9.141C504.761,84.8,507.469,82.6,507.469,80.4Zm-8.971-4.74a17.619,17.619,0,0,1-1.016,2.708c-.339-.508-.508-1.185-.846-1.693s-.677-1.185-1.016-1.693A14.335,14.335,0,0,0,498.5,75.659Zm-3.216,7.448c-.508,1.016-1.185,1.862-1.693,2.708a19.438,19.438,0,0,1-3.216.169,21.583,21.583,0,0,1-3.216-.169c-.508-.846-1.185-1.693-1.693-2.708-.508-.846-1.016-1.862-1.523-2.708a14,14,0,0,1,1.523-2.708c.508-1.016,1.185-1.862,1.693-2.708a19.439,19.439,0,0,1,3.216-.169,21.585,21.585,0,0,1,3.216.169c.508.846,1.185,1.693,1.693,2.708.508.846,1.016,1.862,1.523,2.708C496.3,81.245,495.789,82.26,495.282,83.107Zm2.2-.846c.339,1.016.677,1.862,1.016,2.708-.846.169-1.862.339-2.878.508a14.877,14.877,0,0,0,1.016-1.693A15.25,15.25,0,0,1,497.482,82.26Zm-7.109,7.448a11.654,11.654,0,0,1-1.862-2.2h3.724A11.656,11.656,0,0,1,490.373,89.709Zm-5.248-4.063c-1.016-.169-2.031-.339-2.878-.508a17.625,17.625,0,0,1,1.016-2.708c.339.508.508,1.185.846,1.693A5.908,5.908,0,0,1,485.125,85.646Zm5.248-14.558a11.658,11.658,0,0,1,1.862,2.2h-3.724A11.654,11.654,0,0,1,490.373,71.088Zm-5.248,4.063a14.891,14.891,0,0,0-1.016,1.693,7.908,7.908,0,0,0-.846,1.693c-.339-1.016-.677-1.862-1.016-2.708A17.708,17.708,0,0,1,485.125,75.151Zm-6.263,8.8c-2.539-1.016-4.063-2.37-4.063-3.555,0-1.016,1.523-2.539,4.063-3.555a8.252,8.252,0,0,1,1.862-.677,21.224,21.224,0,0,0,1.523,4.232,25.81,25.81,0,0,0-1.523,4.232C480.047,84.461,479.37,84.122,478.862,83.953Zm3.724,9.987c-1.016-.508-1.354-2.539-1.016-5.248a8.5,8.5,0,0,1,.339-2.031,33.8,33.8,0,0,0,4.4.846,32.723,32.723,0,0,0,2.878,3.555c-2.2,2.2-4.4,3.216-5.925,3.216A1.284,1.284,0,0,0,482.586,93.94Zm16.589-5.417c.339,2.708,0,4.74-1.016,5.248a1.269,1.269,0,0,1-.846.169c-1.523,0-3.555-1.185-5.925-3.216a20.287,20.287,0,0,0,2.878-3.555,33.8,33.8,0,0,0,4.4-.846A5.844,5.844,0,0,1,499.175,88.524Zm2.708-4.57a8.251,8.251,0,0,1-1.862.677A21.224,21.224,0,0,0,498.5,80.4a25.81,25.81,0,0,0,1.523-4.232c.677.169,1.354.508,2.031.677,2.539,1.016,4.063,2.37,4.063,3.555C505.946,81.414,504.422,82.938,501.883,83.953Z" transform="translate(-473.784 -64.994)"/><path class="ba" d="M482.954,65.155Z" transform="translate(-473.305 -64.986)"/><circle class="ba" cx="3.216" cy="3.216" r="3.216" transform="translate(13.373 12.188)"/><path class="ba" d="M496.146,65.155Z" transform="translate(-472.616 -64.986)"/></g></g></g></svg>